<svg xmlns="http://www.w3.org/2000/svg" fill="none" viewBox="0 0 260 260"><path fill="#000" d="M0 0h260v260H0z"/><path fill="#FAFAFA" d="M75.718 141.791c1.092-12.266 8.955-18.172 23.808-18.172 20.094 0 23.807 4.543 23.807 24.76v17.263c0 19.99-3.713 24.533-23.807 24.533-14.634 0-22.497-4.543-23.808-13.402v-34.982ZM34 43.205V224.93h40.407v-32.71c4.369 23.624 18.566 35.436 42.811 35.436 40.626 0 49.799-10.222 49.799-61.105v-19.535c0-50.883-8.955-61.105-47.615-61.105-26.21 0-38.879 6.133-43.902 27.258V43.205H34ZM232 186.314h-37.131v38.616H232v-38.616Z"/></svg>