<svg xmlns="http://www.w3.org/2000/svg" fill="none" viewBox="0 0 256 321"><path fill="#F96E62" d="M251.863 122.388 2.655 8.638A17.81 17.81 0 0 0 0 17.908v53.84c.001 3.43.989 6.786 2.844 9.67a17.851 17.851 0 0 0 7.619 6.59l159.215 72.395H256a184.762 184.762 0 0 0-2.36-28.966 160.306 160.306 0 0 0-1.777-9.049Z"/><path fill="#383182" d="M251.863 122.388a154.162 154.162 0 0 0-17.132-44.397c-14.125-24.34-34.165-43.635-59.564-57.343C149.769 6.94 120.102 0 86.953 0h-69.1c-3.062.007-6.07.806-8.733 2.32a17.78 17.78 0 0 0-6.465 6.318l249.208 113.75Z"/><path fill="#7B47F3" d="M251.863 198.418 2.655 312.209A17.811 17.811 0 0 1 0 302.939v-53.84a17.883 17.883 0 0 1 2.844-9.669 17.848 17.848 0 0 1 7.619-6.59l159.215-72.437H256a184.784 184.784 0 0 1-2.36 28.967 160.446 160.446 0 0 1-1.777 9.048Z"/><path fill="#383182" d="M251.863 198.418a154.152 154.152 0 0 1-17.132 44.397c-14.125 24.34-34.165 43.635-59.564 57.343-25.398 13.708-55.065 20.648-88.214 20.648h-69.1a17.747 17.747 0 0 1-8.727-2.301 17.782 17.782 0 0 1-6.471-6.296l249.208-113.791Z"/></svg>